# xmcd
#
# Track frame offsets:
#	150
#	11541
#	24941
#	35909
#	48315
#	62585
#	75346
#	85775
#	98240
#	110718
#	126234
#	139824
#
# Disc length: 2017 seconds
# Revision: 0
# Processed by: cddbd v1.5.2PL0 Copyright (c) Steve Scherf et al.
# Submitted via: dBpowerAMP V12.0
#
DISCID=9507df0c
DTITLE=Marvin Gaye and Tammi Terrell - United
DYEAR=1967
DGENRE=Soul
TTITLE0=Ain´t no mountain high enough
TTITLE1=You got what it takes
TTITLE2=If i could build my world around you
TTITLE3=Somethin´ stupid
TTITLE4=Your precious love
TTITLE5=Hold me oh my darling
TTITLE6=Two can have a party
TTITLE7=Little ole boy, little ole girl
TTITLE8=If this world were mine
TTITLE9=Sad wedding
TTITLE10=Give a little love
TTITLE11=Oh how i´d miss you
EXTD=
EXTT0=
EXTT1=
EXTT2=
EXTT3=
EXTT4=
EXTT5=
EXTT6=
EXTT7=
EXTT8=
EXTT9=
EXTT10=
EXTT11=
PLAYORDER=
